<svg xmlns="http://www.w3.org/2000/svg" xmlns:xlink="http://www.w3.org/1999/xlink" width="500" zoomAndPan="magnify" viewBox="0 0 375 374.999991" height="500" preserveAspectRatio="xMidYMid meet" version="1.0"><defs><g/><clipPath id="33f3b90fbc"><path d="M 10.851562 137.699219 L 110.601562 137.699219 L 110.601562 218 L 10.851562 218 Z M 10.851562 137.699219 " clip-rule="nonzero"/></clipPath><clipPath id="b4624915db"><path d="M 19 214 L 89 214 L 89 237.449219 L 19 237.449219 Z M 19 214 " clip-rule="nonzero"/></clipPath></defs><rect x="-37.5" width="450" fill="rgba(255, 255, 255, 0" y="-37.499999" height="449.999989" fill-opacity="1"/><rect x="-37.5" width="450" fill="rgba(255, 255, 255, 0" y="-37.499999" height="449.999989" fill-opacity="1"/><g clip-path="url(#33f3b90fbc)"><path fill="#7fd517" d="M 21.101562 185.878906 C 23.570312 182.613281 27.058594 180.574219 30.789062 179.871094 C 27.722656 180.699219 24.902344 182.511719 22.839844 185.242188 C 17.898438 191.773438 19.191406 201.074219 25.726562 206.015625 C 32.257812 210.953125 41.558594 209.660156 46.496094 203.128906 C 48.558594 200.398438 49.535156 197.1875 49.496094 194.015625 C 49.835938 197.792969 48.824219 201.707031 46.355469 204.972656 C 41.085938 211.945312 31.15625 213.324219 24.183594 208.050781 C 17.210938 202.78125 15.832031 192.851562 21.101562 185.878906 Z M 36.363281 180.613281 L 37.113281 175.871094 C 37.6875 176.4375 38.34375 176.953125 39.070312 177.40625 L 38.121094 180.933594 C 39.8125 181.367188 41.453125 182.132812 42.933594 183.253906 C 48.882812 187.753906 50.0625 196.222656 45.5625 202.175781 C 43.453125 204.960938 40.476562 206.703125 37.296875 207.304688 C 39.910156 206.597656 42.320312 205.046875 44.082031 202.71875 C 48.296875 197.144531 47.191406 189.207031 41.617188 184.992188 C 40.367188 184.046875 38.996094 183.371094 37.578125 182.949219 L 35.699219 189.9375 C 36.003906 190.054688 36.300781 190.199219 36.582031 190.382812 C 38.832031 191.8125 39.496094 194.800781 38.066406 197.050781 C 37.46875 197.984375 36.605469 198.644531 35.640625 198.996094 C 36.300781 198.648438 36.882812 198.132812 37.3125 197.460938 C 38.621094 195.402344 38.011719 192.675781 35.957031 191.367188 C 35.773438 191.25 35.585938 191.15625 35.398438 191.070312 L 33.730469 197.269531 L 34.75 190.828125 C 32.929688 190.332031 30.925781 191.046875 29.863281 192.71875 C 29.433594 193.394531 29.214844 194.140625 29.179688 194.882812 C 29.085938 193.859375 29.320312 192.796875 29.914062 191.863281 C 31.015625 190.136719 33.027344 189.347656 34.921875 189.722656 L 36.050781 182.601562 C 31.5625 181.863281 26.824219 183.574219 23.890625 187.457031 C 22.128906 189.785156 21.296875 192.523438 21.332031 195.234375 C 21.042969 192.007812 21.902344 188.667969 24.011719 185.882812 C 27.003906 181.917969 31.761719 180.078125 36.363281 180.613281 Z M 35.355469 169.421875 C 36.035156 165.296875 41.046875 162.691406 46.542969 163.597656 C 51.175781 164.367188 54.679688 167.382812 55.257812 170.78125 C 54.28125 168.175781 51.402344 165.984375 47.722656 165.378906 C 42.792969 164.5625 38.300781 166.898438 37.691406 170.597656 C 37.109375 174.117188 40.253906 177.601562 44.8125 178.632812 C 44.570312 178.605469 44.324219 178.574219 44.074219 178.53125 C 38.578125 177.625 34.671875 173.542969 35.355469 169.421875 Z M 68.675781 175.054688 C 68.675781 175.054688 64.660156 174.007812 70.339844 172.84375 C 76.015625 171.675781 86.910156 170.753906 86.171875 175.519531 C 85.589844 179.261719 81.460938 177.632812 79.710938 176.761719 L 75.917969 183.175781 C 76.097656 183.320312 76.277344 183.460938 76.453125 183.601562 C 78.25 182.203125 80.375 181.171875 82.742188 180.648438 C 91.277344 178.753906 99.730469 184.136719 101.625 192.671875 C 102.511719 196.667969 101.800781 200.648438 99.921875 203.941406 C 101.277344 201.070312 101.726562 197.746094 100.984375 194.40625 C 99.210938 186.410156 91.292969 181.367188 83.296875 183.140625 C 81.488281 183.542969 79.835938 184.257812 78.375 185.21875 C 80.433594 187.019531 82.441406 189.015625 84.375 191.230469 C 85.921875 189.503906 88.53125 189.09375 90.554688 190.382812 C 92.804688 191.8125 93.46875 194.800781 92.035156 197.050781 C 91.441406 197.984375 90.578125 198.644531 89.609375 198.996094 C 90.269531 198.648438 90.851562 198.132812 91.28125 197.460938 C 92.59375 195.402344 91.984375 192.675781 89.929688 191.367188 C 88.277344 190.316406 86.195312 190.5 84.757812 191.679688 C 86.238281 193.410156 87.671875 195.269531 89.035156 197.269531 C 89.035156 197.269531 87.105469 195.417969 83.8125 192.753906 C 83.398438 193.417969 83.183594 194.152344 83.152344 194.882812 C 83.082031 194.097656 83.203125 193.285156 83.535156 192.527344 C 81.511719 190.902344 78.996094 188.996094 76.121094 187.035156 C 72.597656 190.503906 70.882812 195.648438 72.03125 200.832031 C 72.769531 204.171875 74.585938 206.992188 77.027344 209.019531 C 73.929688 206.832031 71.605469 203.523438 70.71875 199.527344 C 69.601562 194.507812 71.011719 189.515625 74.09375 185.871094 L 73.984375 185.617188 C 64.636719 179.5625 52.132812 173.519531 39.976562 174.039062 L 39.730469 174.941406 C 38.660156 173.679688 38.136719 172.1875 38.378906 170.710938 C 38.671875 168.949219 40.027344 167.492188 41.957031 166.664062 L 41.320312 169.035156 C 47.832031 169.800781 61.1875 172.441406 73.8125 181.582031 L 76.144531 175.988281 Z M 89.476562 211 C 82.191406 212.613281 74.976562 208.019531 73.363281 200.734375 C 72.605469 197.324219 73.210938 193.929688 74.816406 191.117188 C 73.660156 193.566406 73.273438 196.40625 73.90625 199.253906 C 75.421875 206.078125 82.179688 210.382812 89.003906 208.871094 C 95.828125 207.355469 100.132812 200.597656 98.617188 193.773438 C 97.984375 190.921875 96.4375 188.515625 94.355469 186.785156 C 97 188.652344 98.980469 191.472656 99.738281 194.882812 C 101.355469 202.167969 96.761719 209.382812 89.476562 211 Z M 61.746094 204.292969 L 54.386719 204.292969 L 58.828125 193.699219 L 57.121094 202.46875 L 61.726562 202.375 C 62.261719 202.363281 62.703125 202.796875 62.703125 203.332031 C 62.703125 203.863281 62.273438 204.292969 61.746094 204.292969 Z M 100.53125 217.324219 C 106.757812 209.011719 110.449219 198.6875 110.449219 187.496094 C 110.449219 159.996094 88.152344 137.699219 60.648438 137.699219 C 33.144531 137.699219 10.851562 159.996094 10.851562 187.496094 C 10.851562 197.1875 13.621094 206.230469 18.410156 213.878906 C 35.773438 211.234375 67.855469 208.570312 100.53125 217.324219 " fill-opacity="1" fill-rule="nonzero"/></g><g clip-path="url(#b4624915db)"><path fill="#ffffff" d="M 19.160156 215.046875 C 28.085938 228.457031 43.332031 237.296875 60.648438 237.296875 C 70.992188 237.296875 80.601562 234.140625 88.5625 228.742188 C 72.660156 221.492188 48.308594 213.65625 19.160156 215.046875 " fill-opacity="1" fill-rule="nonzero"/></g><g fill="#000000" fill-opacity="1"><g transform="translate(118.658572, 202.430166)"><g><path d="M 55.03125 13.265625 C 54.59375 12.890625 53.9375 12.9375 53.5625 13.4375 C 51.96875 15.34375 50.4375 16.265625 48.921875 16.21875 C 45.203125 16.109375 41.109375 10.3125 36.734375 4.265625 C 33.625 -0.15625 30.1875 -5.015625 26.265625 -8.734375 C 29.203125 -9.71875 32.09375 -11.140625 34.890625 -13.046875 C 40.078125 -16.59375 44.71875 -21.671875 48.046875 -27.296875 C 53.0625 -35.875 54.21875 -44.390625 51.046875 -49.515625 C 49.359375 -52.296875 45.578125 -55.46875 37.28125 -54.859375 C 24.734375 -54 10.15625 -45.75 4.90625 -36.46875 C 2.234375 -31.828125 2.015625 -27.140625 4.15625 -22.8125 C 4.421875 -22.328125 5.015625 -22.109375 5.5625 -22.390625 C 6.0625 -22.609375 6.28125 -23.25 6 -23.796875 C 4.15625 -27.453125 4.421875 -31.390625 6.71875 -35.4375 C 11.625 -44 25.65625 -51.96875 37.453125 -52.796875 C 43.1875 -53.171875 47.21875 -51.703125 49.25 -48.421875 C 52.03125 -43.953125 50.875 -36.25 46.234375 -28.328125 C 40.015625 -17.859375 31.671875 -12.453125 24.34375 -10.375 C 23.46875 -11.078125 22.609375 -11.734375 21.671875 -12.28125 C 20.75 -12.890625 19.8125 -13.375 18.890625 -13.8125 C 19.4375 -15.890625 19.921875 -17.90625 20.359375 -19.8125 C 22.8125 -29.640625 25.0625 -38.921875 26.3125 -44.546875 C 26.421875 -45.09375 26.09375 -45.640625 25.5 -45.796875 C 24.953125 -45.90625 24.40625 -45.53125 24.296875 -44.984375 C 23.03125 -39.359375 20.75 -30.140625 18.34375 -20.3125 C 17.859375 -18.34375 17.421875 -16.4375 16.921875 -14.625 C 13.8125 -15.78125 11.25 -15.78125 9.65625 -14.578125 C 8.6875 -13.75 8.296875 -12.5625 8.6875 -11.359375 C 9.21875 -9.71875 11.1875 -7.921875 15.171875 -7.421875 C 6.390625 28.875 6.546875 31.171875 8.25 31.78125 C 8.40625 31.828125 8.578125 31.828125 8.6875 31.828125 C 9.71875 31.828125 10.53125 30.40625 11.953125 27.296875 C 12.171875 26.8125 11.953125 26.15625 11.40625 25.9375 C 10.859375 25.71875 10.265625 25.9375 9.984375 26.484375 C 9.875 26.75 9.71875 27.078125 9.609375 27.34375 C 10.53125 21.078125 13.96875 6.390625 17.3125 -7.3125 C 19.484375 -7.265625 21.671875 -7.53125 23.90625 -8.03125 C 28.0625 -4.421875 31.71875 0.765625 35.046875 5.453125 C 39.90625 12.28125 44.0625 18.1875 48.859375 18.34375 C 48.921875 18.34375 48.96875 18.34375 49.03125 18.34375 C 51.203125 18.34375 53.234375 17.140625 55.1875 14.734375 C 55.578125 14.296875 55.46875 13.65625 55.03125 13.265625 Z M 10.703125 -12.015625 C 10.59375 -12.390625 10.640625 -12.671875 10.96875 -12.890625 C 11.40625 -13.265625 12.015625 -13.4375 12.71875 -13.4375 C 13.8125 -13.4375 15.125 -13.046875 16.4375 -12.5625 C 16.15625 -11.515625 15.9375 -10.484375 15.671875 -9.5 C 12.71875 -9.828125 11.03125 -10.96875 10.703125 -12.015625 Z M 17.859375 -9.390625 C 18.015625 -10.15625 18.1875 -10.921875 18.390625 -11.6875 C 19.21875 -11.296875 19.984375 -10.859375 20.578125 -10.484375 C 20.96875 -10.265625 21.34375 -10.046875 21.671875 -9.765625 C 20.359375 -9.546875 19.046875 -9.4375 17.859375 -9.390625 Z M 17.859375 -9.390625 "/></g></g></g><g fill="#000000" fill-opacity="1"><g transform="translate(168.934487, 202.430166)"><g><path d="M 15.9375 -12.390625 C 15.453125 -12.71875 14.84375 -12.5625 14.515625 -12.0625 C 10.859375 -6.171875 4.75 -0.59375 2.890625 -1.359375 C 2.671875 -1.46875 0.921875 -2.515625 3.328125 -11.734375 C 3.4375 -12.34375 3.109375 -12.890625 2.5625 -13.046875 C 1.96875 -13.15625 1.421875 -12.828125 1.25 -12.28125 C -0.703125 -4.578125 -0.4375 -0.484375 2.015625 0.546875 C 2.40625 0.703125 2.78125 0.765625 3.171875 0.765625 C 7.265625 0.765625 13.546875 -6.546875 16.328125 -10.96875 C 16.59375 -11.46875 16.4375 -12.125 15.9375 -12.390625 Z M 3.0625 -16.8125 C 5.84375 -16.65625 5.78125 -20.140625 3.546875 -19.375 C 2.40625 -19.046875 0.921875 -16.921875 3.0625 -16.8125 Z M 3.0625 -16.8125 "/></g></g></g><g fill="#000000" fill-opacity="1"><g transform="translate(182.745352, 202.430166)"><g><path d="M 23.3125 -45.578125 C 22.921875 -45.90625 22.4375 -46.015625 21.953125 -45.90625 C 19.59375 -45.15625 15.390625 -33.734375 11.359375 -14.953125 C 11.25 -14.625 11.078125 -14.359375 10.921875 -14.03125 C 10.640625 -16.15625 9.21875 -16.765625 8.734375 -16.921875 C 6.390625 -17.640625 2.671875 -15.5 0.109375 -10.046875 C -1.859375 -5.953125 -2.234375 -0.59375 0.21875 0.8125 C 1.421875 1.53125 3.5 1.421875 6.5 -2.953125 C 7.8125 -4.796875 8.953125 -6.609375 10.046875 -8.359375 C 9.4375 -5.234375 8.84375 -1.96875 8.296875 1.46875 C 7.265625 7.59375 6.5 12.71875 6.0625 16.4375 C 5.1875 23.6875 5.625 24.671875 6.71875 25 C 6.828125 25.0625 6.984375 25.0625 7.09375 25.0625 C 8.078125 25.0625 8.734375 23.796875 9.0625 22.984375 C 9.328125 22.5 9.109375 21.84375 8.578125 21.625 C 8.296875 21.453125 7.96875 21.453125 7.703125 21.5625 C 7.8125 19.21875 8.359375 13.859375 10.375 1.859375 C 11.359375 -4.15625 12.390625 -9.5 13.375 -14.1875 C 17.46875 -21.953125 19.546875 -28.5 21.234375 -33.6875 C 21.453125 -34.34375 21.671875 -34.9375 21.84375 -35.484375 C 24.734375 -44.171875 23.640625 -45.203125 23.3125 -45.578125 Z M 4.75 -4.15625 C 2.671875 -1.140625 1.53125 -0.875 1.25 -0.984375 C 0.4375 -1.46875 0.15625 -5.234375 2.015625 -9.171875 C 3.875 -13.109375 6.390625 -14.953125 7.75 -14.953125 C 7.921875 -14.953125 8.03125 -14.953125 8.140625 -14.90625 C 9.015625 -14.6875 8.84375 -13.109375 8.796875 -12.671875 C 8.734375 -12.171875 9.015625 -11.6875 9.5 -11.515625 C 8.140625 -9.171875 6.546875 -6.71875 4.75 -4.15625 Z M 19.875 -36.140625 C 19.65625 -35.59375 19.4375 -35 19.265625 -34.34375 C 18.28125 -31.390625 17.203125 -28.0625 15.71875 -24.296875 C 18.015625 -33.359375 20.09375 -39.03125 21.40625 -41.875 C 21.1875 -40.5625 20.6875 -38.703125 19.875 -36.140625 Z M 19.875 -36.140625 "/></g></g></g><g fill="#000000" fill-opacity="1"><g transform="translate(199.831524, 202.430166)"><g><path d="M 18.453125 -12.171875 C 17.96875 -12.5 17.3125 -12.390625 16.984375 -11.90625 C 12.890625 -6.171875 9.546875 -2.5625 6.28125 -0.21875 C 4.640625 0.921875 3.0625 1.140625 2.015625 0.375 C 1.359375 -0.109375 -0.65625 -2.296875 1.6875 -9.9375 C 6.984375 -14.296875 9.875 -18.453125 9.109375 -20.640625 C 8.84375 -21.296875 8.1875 -21.734375 7.484375 -21.734375 C 5.296875 -21.671875 1.96875 -17.90625 -0.21875 -10.859375 C -2.890625 -2.1875 -0.703125 0.984375 0.8125 2.078125 C 1.578125 2.671875 2.453125 2.953125 3.4375 2.953125 C 4.6875 2.953125 6.109375 2.453125 7.484375 1.46875 C 10.96875 -1.03125 14.40625 -4.75 18.671875 -10.703125 C 19 -11.1875 18.890625 -11.84375 18.453125 -12.171875 Z M 7.046875 -19.4375 C 6.828125 -18.5625 5.890625 -16.8125 3.328125 -14.1875 C 4.75 -17.359375 6.28125 -18.890625 7.046875 -19.4375 Z M 7.046875 -19.4375 "/></g></g></g><g fill="#000000" fill-opacity="1"><g transform="translate(215.716745, 202.430166)"><g><path d="M 53.28125 -12.453125 C 52.953125 -12.9375 52.296875 -13.046875 51.859375 -12.71875 C 46.296875 -8.796875 41.265625 -5.015625 36.6875 -1.46875 C 33.578125 -6.609375 25.28125 -9.984375 14.1875 -14.46875 C 12.78125 -15.015625 11.359375 -15.609375 9.875 -16.21875 C 5.515625 -17.96875 3.984375 -20.6875 5.1875 -24.453125 C 6.828125 -29.703125 13.703125 -36.625 23.03125 -42.578125 C 31.9375 -48.203125 40.671875 -51.375 44.765625 -50.4375 C 46.078125 -50.171875 47.546875 -49.40625 47.109375 -46.34375 C 47 -45.796875 47.4375 -45.265625 47.984375 -45.15625 C 48.59375 -45.09375 49.140625 -45.484375 49.1875 -46.078125 C 49.84375 -50.71875 47 -52.078125 45.265625 -52.515625 C 35.328125 -54.75 7.203125 -37.890625 3.171875 -25.109375 C 1.6875 -20.3125 3.765625 -16.4375 9.0625 -14.25 C 10.53125 -13.65625 12.015625 -13.046875 13.4375 -12.5 C 25.328125 -7.703125 32.640625 -4.53125 35.046875 -0.21875 C 15.71875 14.90625 5.890625 25.71875 7.53125 30.359375 C 7.8125 31.125 8.625 32.265625 10.921875 32.265625 C 11.078125 32.265625 11.296875 32.265625 11.46875 32.265625 C 18.78125 31.71875 34.71875 20.796875 37.78125 5.34375 C 38.15625 3.546875 38.046875 1.90625 37.609375 0.4375 C 42.25 -3.109375 47.390625 -6.9375 53.0625 -10.96875 C 53.5625 -11.359375 53.671875 -12.015625 53.28125 -12.453125 Z M 35.703125 4.96875 C 32.75 19.703125 17.3125 29.703125 11.296875 30.1875 C 10.75 30.1875 9.71875 30.1875 9.546875 29.640625 C 8.953125 28 12.015625 23.359375 17.359375 17.96875 C 21.890625 13.328125 28.0625 7.921875 35.765625 1.859375 C 35.984375 2.84375 35.921875 3.828125 35.703125 4.96875 Z M 35.703125 4.96875 "/></g></g></g><g fill="#000000" fill-opacity="1"><g transform="translate(266.920663, 202.430166)"><g><path d="M 25.828125 -12.453125 C 25.328125 -12.78125 24.671875 -12.609375 24.40625 -12.125 C 16.65625 0.375 13.921875 0.109375 13.65625 0.046875 C 13.109375 -0.109375 12.5 -1.203125 12.34375 -3.875 C 12.28125 -5.078125 12.015625 -8.6875 9.609375 -9.015625 C 6.828125 -9.390625 3.5 -4.53125 0.484375 1.75 C 2.34375 -6.546875 5.015625 -17.96875 6.984375 -26.046875 C 14.296875 -39.203125 18.015625 -49.078125 16.484375 -51.203125 C 16.15625 -51.703125 15.609375 -51.859375 15.0625 -51.75 C 12.71875 -51.3125 9.0625 -43.34375 6.609375 -33.25 C 6.5 -32.859375 -3.28125 7.046875 -3.609375 11.953125 C -3.609375 12.5 -3.28125 12.9375 -2.734375 13.046875 C -2.671875 13.046875 -2.625 13.046875 -2.5625 13.046875 C -2.125 13.046875 -1.6875 12.78125 -1.53125 12.390625 C 3.21875 -1.25 7.859375 -6.9375 9.21875 -6.9375 C 9.28125 -6.9375 9.28125 -6.9375 9.28125 -6.9375 C 9.5 -6.9375 10.09375 -6.28125 10.265625 -3.765625 C 10.3125 -2.453125 10.59375 1.421875 13.109375 2.078125 C 14.1875 2.34375 17.421875 3.171875 26.15625 -11.03125 C 26.484375 -11.515625 26.3125 -12.171875 25.828125 -12.453125 Z M 14.6875 -48.75 C 14.25 -46.5625 12.71875 -41.875 9.0625 -34.5 C 11.140625 -42.359375 13.375 -46.890625 14.6875 -48.75 Z M 14.6875 -48.75 "/></g></g></g><g fill="#000000" fill-opacity="1"><g transform="translate(290.448266, 202.430166)"><g><path d="M 22.8125 -12.125 C 22.328125 -12.34375 21.671875 -12.125 21.453125 -11.625 C 17.3125 -3.171875 14.1875 -0.484375 12.71875 -0.765625 C 12.125 -0.875 10.15625 -2.015625 9.65625 -11.578125 C 9.65625 -12.015625 9.328125 -12.390625 8.953125 -12.5 C 8.515625 -12.609375 8.03125 -12.5 7.8125 -12.125 C 7.484375 -11.734375 7.15625 -11.296875 6.828125 -10.8125 C 5.453125 -8.953125 3.65625 -6.4375 1.46875 -4.09375 C 1.140625 -3.71875 0.875 -3.5 0.703125 -3.390625 C 0.328125 -5.296875 2.34375 -12.609375 5.5625 -14.90625 C 6.5 -15.5625 7.75 -16.046875 9.4375 -14.078125 C 9.828125 -13.65625 10.484375 -13.59375 10.921875 -13.96875 C 11.359375 -14.296875 11.40625 -15.015625 11.078125 -15.453125 C 9.015625 -17.859375 7.046875 -17.796875 5.734375 -17.359375 C 1.53125 -15.890625 -1.3125 -7.8125 -1.421875 -4.09375 C -1.46875 -2.5625 -1.03125 -1.578125 -0.15625 -1.25 C 1.203125 -0.703125 2.5625 -2.1875 3 -2.671875 C 4.859375 -4.6875 6.546875 -6.875 7.75 -8.578125 C 8.359375 -2.34375 9.828125 0.765625 12.28125 1.3125 C 12.5 1.3125 12.71875 1.359375 12.9375 1.359375 C 16.65625 1.359375 20.640625 -5.125 23.3125 -10.703125 C 23.578125 -11.25 23.359375 -11.84375 22.8125 -12.125 Z M 22.8125 -12.125 "/></g></g></g><g fill="#000000" fill-opacity="1"><g transform="translate(310.755147, 202.430166)"><g><path d="M 23.96875 -12.34375 C 23.421875 -12.609375 22.765625 -12.390625 22.546875 -11.84375 C 16.265625 1.359375 10.3125 8.140625 9.015625 7.921875 C 8.90625 7.859375 6.984375 6 13.15625 -12.9375 C 13.328125 -13.4375 13.703125 -14.578125 12.828125 -15.171875 C 12.015625 -15.828125 11.078125 -15.234375 9.546875 -14.1875 C 7.921875 -13.15625 5.671875 -11.6875 3.9375 -11.90625 C 9.5 -21.515625 8.953125 -23.640625 7.703125 -24.453125 C 5.734375 -25.609375 2.890625 -22.28125 1.578125 -20.359375 C -1.09375 -16.21875 -1.03125 -12.453125 1.796875 -10.53125 C 4.6875 -8.515625 8.46875 -10.96875 10.703125 -12.453125 C 10.75 -12.5 10.75 -12.5 10.8125 -12.5625 C 8.6875 -5.84375 7.3125 -0.546875 6.828125 3.109375 C 6.21875 7.15625 6.65625 9.28125 8.1875 9.875 C 8.46875 9.9375 8.6875 9.984375 8.953125 9.984375 C 13.328125 9.984375 20.90625 -3.4375 24.453125 -10.921875 C 24.671875 -11.46875 24.453125 -12.125 23.96875 -12.34375 Z M 1.90625 -16.109375 C 2.671875 -19.046875 5.234375 -21.78125 6.390625 -22.4375 C 6.28125 -21.5625 5.671875 -19.109375 2.1875 -13.046875 C 1.796875 -13.65625 1.53125 -14.578125 1.90625 -16.109375 Z M 1.90625 -16.109375 "/></g></g></g><g fill="#000000" fill-opacity="1"><g transform="translate(332.535915, 202.430166)"><g><path d="M 18.453125 -12.171875 C 17.96875 -12.5 17.3125 -12.390625 16.984375 -11.90625 C 12.890625 -6.171875 9.546875 -2.5625 6.28125 -0.21875 C 4.640625 0.921875 3.0625 1.140625 2.015625 0.375 C 1.359375 -0.109375 -0.65625 -2.296875 1.6875 -9.9375 C 6.984375 -14.296875 9.875 -18.453125 9.109375 -20.640625 C 8.84375 -21.296875 8.1875 -21.734375 7.484375 -21.734375 C 5.296875 -21.671875 1.96875 -17.90625 -0.21875 -10.859375 C -2.890625 -2.1875 -0.703125 0.984375 0.8125 2.078125 C 1.578125 2.671875 2.453125 2.953125 3.4375 2.953125 C 4.6875 2.953125 6.109375 2.453125 7.484375 1.46875 C 10.96875 -1.03125 14.40625 -4.75 18.671875 -10.703125 C 19 -11.1875 18.890625 -11.84375 18.453125 -12.171875 Z M 7.046875 -19.4375 C 6.828125 -18.5625 5.890625 -16.8125 3.328125 -14.1875 C 4.75 -17.359375 6.28125 -18.890625 7.046875 -19.4375 Z M 7.046875 -19.4375 "/></g></g></g><g fill="#000000" fill-opacity="1"><g transform="translate(348.434038, 202.430166)"><g/></g></g><g fill="#000000" fill-opacity="1"><g transform="translate(118.658572, 204.680166)"><g><path d="M 55.03125 13.265625 C 54.59375 12.890625 53.9375 12.9375 53.5625 13.4375 C 51.96875 15.34375 50.4375 16.265625 48.921875 16.21875 C 45.203125 16.109375 41.109375 10.3125 36.734375 4.265625 C 33.625 -0.15625 30.1875 -5.015625 26.265625 -8.734375 C 29.203125 -9.71875 32.09375 -11.140625 34.890625 -13.046875 C 40.078125 -16.59375 44.71875 -21.671875 48.046875 -27.296875 C 53.0625 -35.875 54.21875 -44.390625 51.046875 -49.515625 C 49.359375 -52.296875 45.578125 -55.46875 37.28125 -54.859375 C 24.734375 -54 10.15625 -45.75 4.90625 -36.46875 C 2.234375 -31.828125 2.015625 -27.140625 4.15625 -22.8125 C 4.421875 -22.328125 5.015625 -22.109375 5.5625 -22.390625 C 6.0625 -22.609375 6.28125 -23.25 6 -23.796875 C 4.15625 -27.453125 4.421875 -31.390625 6.71875 -35.4375 C 11.625 -44 25.65625 -51.96875 37.453125 -52.796875 C 43.1875 -53.171875 47.21875 -51.703125 49.25 -48.421875 C 52.03125 -43.953125 50.875 -36.25 46.234375 -28.328125 C 40.015625 -17.859375 31.671875 -12.453125 24.34375 -10.375 C 23.46875 -11.078125 22.609375 -11.734375 21.671875 -12.28125 C 20.75 -12.890625 19.8125 -13.375 18.890625 -13.8125 C 19.4375 -15.890625 19.921875 -17.90625 20.359375 -19.8125 C 22.8125 -29.640625 25.0625 -38.921875 26.3125 -44.546875 C 26.421875 -45.09375 26.09375 -45.640625 25.5 -45.796875 C 24.953125 -45.90625 24.40625 -45.53125 24.296875 -44.984375 C 23.03125 -39.359375 20.75 -30.140625 18.34375 -20.3125 C 17.859375 -18.34375 17.421875 -16.4375 16.921875 -14.625 C 13.8125 -15.78125 11.25 -15.78125 9.65625 -14.578125 C 8.6875 -13.75 8.296875 -12.5625 8.6875 -11.359375 C 9.21875 -9.71875 11.1875 -7.921875 15.171875 -7.421875 C 6.390625 28.875 6.546875 31.171875 8.25 31.78125 C 8.40625 31.828125 8.578125 31.828125 8.6875 31.828125 C 9.71875 31.828125 10.53125 30.40625 11.953125 27.296875 C 12.171875 26.8125 11.953125 26.15625 11.40625 25.9375 C 10.859375 25.71875 10.265625 25.9375 9.984375 26.484375 C 9.875 26.75 9.71875 27.078125 9.609375 27.34375 C 10.53125 21.078125 13.96875 6.390625 17.3125 -7.3125 C 19.484375 -7.265625 21.671875 -7.53125 23.90625 -8.03125 C 28.0625 -4.421875 31.71875 0.765625 35.046875 5.453125 C 39.90625 12.28125 44.0625 18.1875 48.859375 18.34375 C 48.921875 18.34375 48.96875 18.34375 49.03125 18.34375 C 51.203125 18.34375 53.234375 17.140625 55.1875 14.734375 C 55.578125 14.296875 55.46875 13.65625 55.03125 13.265625 Z M 10.703125 -12.015625 C 10.59375 -12.390625 10.640625 -12.671875 10.96875 -12.890625 C 11.40625 -13.265625 12.015625 -13.4375 12.71875 -13.4375 C 13.8125 -13.4375 15.125 -13.046875 16.4375 -12.5625 C 16.15625 -11.515625 15.9375 -10.484375 15.671875 -9.5 C 12.71875 -9.828125 11.03125 -10.96875 10.703125 -12.015625 Z M 17.859375 -9.390625 C 18.015625 -10.15625 18.1875 -10.921875 18.390625 -11.6875 C 19.21875 -11.296875 19.984375 -10.859375 20.578125 -10.484375 C 20.96875 -10.265625 21.34375 -10.046875 21.671875 -9.765625 C 20.359375 -9.546875 19.046875 -9.4375 17.859375 -9.390625 Z M 17.859375 -9.390625 "/></g></g></g><g fill="#000000" fill-opacity="1"><g transform="translate(168.934487, 204.680166)"><g><path d="M 15.9375 -12.390625 C 15.453125 -12.71875 14.84375 -12.5625 14.515625 -12.0625 C 10.859375 -6.171875 4.75 -0.59375 2.890625 -1.359375 C 2.671875 -1.46875 0.921875 -2.515625 3.328125 -11.734375 C 3.4375 -12.34375 3.109375 -12.890625 2.5625 -13.046875 C 1.96875 -13.15625 1.421875 -12.828125 1.25 -12.28125 C -0.703125 -4.578125 -0.4375 -0.484375 2.015625 0.546875 C 2.40625 0.703125 2.78125 0.765625 3.171875 0.765625 C 7.265625 0.765625 13.546875 -6.546875 16.328125 -10.96875 C 16.59375 -11.46875 16.4375 -12.125 15.9375 -12.390625 Z M 3.0625 -16.8125 C 5.84375 -16.65625 5.78125 -20.140625 3.546875 -19.375 C 2.40625 -19.046875 0.921875 -16.921875 3.0625 -16.8125 Z M 3.0625 -16.8125 "/></g></g></g><g fill="#000000" fill-opacity="1"><g transform="translate(182.745352, 204.680166)"><g><path d="M 23.3125 -45.578125 C 22.921875 -45.90625 22.4375 -46.015625 21.953125 -45.90625 C 19.59375 -45.15625 15.390625 -33.734375 11.359375 -14.953125 C 11.25 -14.625 11.078125 -14.359375 10.921875 -14.03125 C 10.640625 -16.15625 9.21875 -16.765625 8.734375 -16.921875 C 6.390625 -17.640625 2.671875 -15.5 0.109375 -10.046875 C -1.859375 -5.953125 -2.234375 -0.59375 0.21875 0.8125 C 1.421875 1.53125 3.5 1.421875 6.5 -2.953125 C 7.8125 -4.796875 8.953125 -6.609375 10.046875 -8.359375 C 9.4375 -5.234375 8.84375 -1.96875 8.296875 1.46875 C 7.265625 7.59375 6.5 12.71875 6.0625 16.4375 C 5.1875 23.6875 5.625 24.671875 6.71875 25 C 6.828125 25.0625 6.984375 25.0625 7.09375 25.0625 C 8.078125 25.0625 8.734375 23.796875 9.0625 22.984375 C 9.328125 22.5 9.109375 21.84375 8.578125 21.625 C 8.296875 21.453125 7.96875 21.453125 7.703125 21.5625 C 7.8125 19.21875 8.359375 13.859375 10.375 1.859375 C 11.359375 -4.15625 12.390625 -9.5 13.375 -14.1875 C 17.46875 -21.953125 19.546875 -28.5 21.234375 -33.6875 C 21.453125 -34.34375 21.671875 -34.9375 21.84375 -35.484375 C 24.734375 -44.171875 23.640625 -45.203125 23.3125 -45.578125 Z M 4.75 -4.15625 C 2.671875 -1.140625 1.53125 -0.875 1.25 -0.984375 C 0.4375 -1.46875 0.15625 -5.234375 2.015625 -9.171875 C 3.875 -13.109375 6.390625 -14.953125 7.75 -14.953125 C 7.921875 -14.953125 8.03125 -14.953125 8.140625 -14.90625 C 9.015625 -14.6875 8.84375 -13.109375 8.796875 -12.671875 C 8.734375 -12.171875 9.015625 -11.6875 9.5 -11.515625 C 8.140625 -9.171875 6.546875 -6.71875 4.75 -4.15625 Z M 19.875 -36.140625 C 19.65625 -35.59375 19.4375 -35 19.265625 -34.34375 C 18.28125 -31.390625 17.203125 -28.0625 15.71875 -24.296875 C 18.015625 -33.359375 20.09375 -39.03125 21.40625 -41.875 C 21.1875 -40.5625 20.6875 -38.703125 19.875 -36.140625 Z M 19.875 -36.140625 "/></g></g></g><g fill="#000000" fill-opacity="1"><g transform="translate(199.831524, 204.680166)"><g><path d="M 18.453125 -12.171875 C 17.96875 -12.5 17.3125 -12.390625 16.984375 -11.90625 C 12.890625 -6.171875 9.546875 -2.5625 6.28125 -0.21875 C 4.640625 0.921875 3.0625 1.140625 2.015625 0.375 C 1.359375 -0.109375 -0.65625 -2.296875 1.6875 -9.9375 C 6.984375 -14.296875 9.875 -18.453125 9.109375 -20.640625 C 8.84375 -21.296875 8.1875 -21.734375 7.484375 -21.734375 C 5.296875 -21.671875 1.96875 -17.90625 -0.21875 -10.859375 C -2.890625 -2.1875 -0.703125 0.984375 0.8125 2.078125 C 1.578125 2.671875 2.453125 2.953125 3.4375 2.953125 C 4.6875 2.953125 6.109375 2.453125 7.484375 1.46875 C 10.96875 -1.03125 14.40625 -4.75 18.671875 -10.703125 C 19 -11.1875 18.890625 -11.84375 18.453125 -12.171875 Z M 7.046875 -19.4375 C 6.828125 -18.5625 5.890625 -16.8125 3.328125 -14.1875 C 4.75 -17.359375 6.28125 -18.890625 7.046875 -19.4375 Z M 7.046875 -19.4375 "/></g></g></g><g fill="#000000" fill-opacity="1"><g transform="translate(215.716745, 204.680166)"><g><path d="M 53.28125 -12.453125 C 52.953125 -12.9375 52.296875 -13.046875 51.859375 -12.71875 C 46.296875 -8.796875 41.265625 -5.015625 36.6875 -1.46875 C 33.578125 -6.609375 25.28125 -9.984375 14.1875 -14.46875 C 12.78125 -15.015625 11.359375 -15.609375 9.875 -16.21875 C 5.515625 -17.96875 3.984375 -20.6875 5.1875 -24.453125 C 6.828125 -29.703125 13.703125 -36.625 23.03125 -42.578125 C 31.9375 -48.203125 40.671875 -51.375 44.765625 -50.4375 C 46.078125 -50.171875 47.546875 -49.40625 47.109375 -46.34375 C 47 -45.796875 47.4375 -45.265625 47.984375 -45.15625 C 48.59375 -45.09375 49.140625 -45.484375 49.1875 -46.078125 C 49.84375 -50.71875 47 -52.078125 45.265625 -52.515625 C 35.328125 -54.75 7.203125 -37.890625 3.171875 -25.109375 C 1.6875 -20.3125 3.765625 -16.4375 9.0625 -14.25 C 10.53125 -13.65625 12.015625 -13.046875 13.4375 -12.5 C 25.328125 -7.703125 32.640625 -4.53125 35.046875 -0.21875 C 15.71875 14.90625 5.890625 25.71875 7.53125 30.359375 C 7.8125 31.125 8.625 32.265625 10.921875 32.265625 C 11.078125 32.265625 11.296875 32.265625 11.46875 32.265625 C 18.78125 31.71875 34.71875 20.796875 37.78125 5.34375 C 38.15625 3.546875 38.046875 1.90625 37.609375 0.4375 C 42.25 -3.109375 47.390625 -6.9375 53.0625 -10.96875 C 53.5625 -11.359375 53.671875 -12.015625 53.28125 -12.453125 Z M 35.703125 4.96875 C 32.75 19.703125 17.3125 29.703125 11.296875 30.1875 C 10.75 30.1875 9.71875 30.1875 9.546875 29.640625 C 8.953125 28 12.015625 23.359375 17.359375 17.96875 C 21.890625 13.328125 28.0625 7.921875 35.765625 1.859375 C 35.984375 2.84375 35.921875 3.828125 35.703125 4.96875 Z M 35.703125 4.96875 "/></g></g></g><g fill="#000000" fill-opacity="1"><g transform="translate(266.920663, 204.680166)"><g><path d="M 25.828125 -12.453125 C 25.328125 -12.78125 24.671875 -12.609375 24.40625 -12.125 C 16.65625 0.375 13.921875 0.109375 13.65625 0.046875 C 13.109375 -0.109375 12.5 -1.203125 12.34375 -3.875 C 12.28125 -5.078125 12.015625 -8.6875 9.609375 -9.015625 C 6.828125 -9.390625 3.5 -4.53125 0.484375 1.75 C 2.34375 -6.546875 5.015625 -17.96875 6.984375 -26.046875 C 14.296875 -39.203125 18.015625 -49.078125 16.484375 -51.203125 C 16.15625 -51.703125 15.609375 -51.859375 15.0625 -51.75 C 12.71875 -51.3125 9.0625 -43.34375 6.609375 -33.25 C 6.5 -32.859375 -3.28125 7.046875 -3.609375 11.953125 C -3.609375 12.5 -3.28125 12.9375 -2.734375 13.046875 C -2.671875 13.046875 -2.625 13.046875 -2.5625 13.046875 C -2.125 13.046875 -1.6875 12.78125 -1.53125 12.390625 C 3.21875 -1.25 7.859375 -6.9375 9.21875 -6.9375 C 9.28125 -6.9375 9.28125 -6.9375 9.28125 -6.9375 C 9.5 -6.9375 10.09375 -6.28125 10.265625 -3.765625 C 10.3125 -2.453125 10.59375 1.421875 13.109375 2.078125 C 14.1875 2.34375 17.421875 3.171875 26.15625 -11.03125 C 26.484375 -11.515625 26.3125 -12.171875 25.828125 -12.453125 Z M 14.6875 -48.75 C 14.25 -46.5625 12.71875 -41.875 9.0625 -34.5 C 11.140625 -42.359375 13.375 -46.890625 14.6875 -48.75 Z M 14.6875 -48.75 "/></g></g></g><g fill="#000000" fill-opacity="1"><g transform="translate(290.448266, 204.680166)"><g><path d="M 22.8125 -12.125 C 22.328125 -12.34375 21.671875 -12.125 21.453125 -11.625 C 17.3125 -3.171875 14.1875 -0.484375 12.71875 -0.765625 C 12.125 -0.875 10.15625 -2.015625 9.65625 -11.578125 C 9.65625 -12.015625 9.328125 -12.390625 8.953125 -12.5 C 8.515625 -12.609375 8.03125 -12.5 7.8125 -12.125 C 7.484375 -11.734375 7.15625 -11.296875 6.828125 -10.8125 C 5.453125 -8.953125 3.65625 -6.4375 1.46875 -4.09375 C 1.140625 -3.71875 0.875 -3.5 0.703125 -3.390625 C 0.328125 -5.296875 2.34375 -12.609375 5.5625 -14.90625 C 6.5 -15.5625 7.75 -16.046875 9.4375 -14.078125 C 9.828125 -13.65625 10.484375 -13.59375 10.921875 -13.96875 C 11.359375 -14.296875 11.40625 -15.015625 11.078125 -15.453125 C 9.015625 -17.859375 7.046875 -17.796875 5.734375 -17.359375 C 1.53125 -15.890625 -1.3125 -7.8125 -1.421875 -4.09375 C -1.46875 -2.5625 -1.03125 -1.578125 -0.15625 -1.25 C 1.203125 -0.703125 2.5625 -2.1875 3 -2.671875 C 4.859375 -4.6875 6.546875 -6.875 7.75 -8.578125 C 8.359375 -2.34375 9.828125 0.765625 12.28125 1.3125 C 12.5 1.3125 12.71875 1.359375 12.9375 1.359375 C 16.65625 1.359375 20.640625 -5.125 23.3125 -10.703125 C 23.578125 -11.25 23.359375 -11.84375 22.8125 -12.125 Z M 22.8125 -12.125 "/></g></g></g><g fill="#000000" fill-opacity="1"><g transform="translate(310.755147, 204.680166)"><g><path d="M 23.96875 -12.34375 C 23.421875 -12.609375 22.765625 -12.390625 22.546875 -11.84375 C 16.265625 1.359375 10.3125 8.140625 9.015625 7.921875 C 8.90625 7.859375 6.984375 6 13.15625 -12.9375 C 13.328125 -13.4375 13.703125 -14.578125 12.828125 -15.171875 C 12.015625 -15.828125 11.078125 -15.234375 9.546875 -14.1875 C 7.921875 -13.15625 5.671875 -11.6875 3.9375 -11.90625 C 9.5 -21.515625 8.953125 -23.640625 7.703125 -24.453125 C 5.734375 -25.609375 2.890625 -22.28125 1.578125 -20.359375 C -1.09375 -16.21875 -1.03125 -12.453125 1.796875 -10.53125 C 4.6875 -8.515625 8.46875 -10.96875 10.703125 -12.453125 C 10.75 -12.5 10.75 -12.5 10.8125 -12.5625 C 8.6875 -5.84375 7.3125 -0.546875 6.828125 3.109375 C 6.21875 7.15625 6.65625 9.28125 8.1875 9.875 C 8.46875 9.9375 8.6875 9.984375 8.953125 9.984375 C 13.328125 9.984375 20.90625 -3.4375 24.453125 -10.921875 C 24.671875 -11.46875 24.453125 -12.125 23.96875 -12.34375 Z M 1.90625 -16.109375 C 2.671875 -19.046875 5.234375 -21.78125 6.390625 -22.4375 C 6.28125 -21.5625 5.671875 -19.109375 2.1875 -13.046875 C 1.796875 -13.65625 1.53125 -14.578125 1.90625 -16.109375 Z M 1.90625 -16.109375 "/></g></g></g><g fill="#000000" fill-opacity="1"><g transform="translate(332.535915, 204.680166)"><g><path d="M 18.453125 -12.171875 C 17.96875 -12.5 17.3125 -12.390625 16.984375 -11.90625 C 12.890625 -6.171875 9.546875 -2.5625 6.28125 -0.21875 C 4.640625 0.921875 3.0625 1.140625 2.015625 0.375 C 1.359375 -0.109375 -0.65625 -2.296875 1.6875 -9.9375 C 6.984375 -14.296875 9.875 -18.453125 9.109375 -20.640625 C 8.84375 -21.296875 8.1875 -21.734375 7.484375 -21.734375 C 5.296875 -21.671875 1.96875 -17.90625 -0.21875 -10.859375 C -2.890625 -2.1875 -0.703125 0.984375 0.8125 2.078125 C 1.578125 2.671875 2.453125 2.953125 3.4375 2.953125 C 4.6875 2.953125 6.109375 2.453125 7.484375 1.46875 C 10.96875 -1.03125 14.40625 -4.75 18.671875 -10.703125 C 19 -11.1875 18.890625 -11.84375 18.453125 -12.171875 Z M 7.046875 -19.4375 C 6.828125 -18.5625 5.890625 -16.8125 3.328125 -14.1875 C 4.75 -17.359375 6.28125 -18.890625 7.046875 -19.4375 Z M 7.046875 -19.4375 "/></g></g></g><g fill="#000000" fill-opacity="1"><g transform="translate(348.434038, 204.680166)"><g/></g></g></svg>